<svg width="16" height="16" viewBox="0 0 16 16" fill="none" xmlns="http://www.w3.org/2000/svg">
<g clip-path="url(#clip0_1458_35352)">
<path d="M14.1099 11.4194C14.4256 11.1005 14.4234 10.5852 14.1045 10.2685C13.7856 9.95282 13.2704 9.95496 12.9536 10.2739L11.0586 12.1862C10.2895 12.9629 9.76018 13.4945 9.3111 13.8546C8.87613 14.205 8.59627 14.3253 8.3457 14.3568C8.18733 14.3774 8.02897 14.3774 7.8706 14.3568C7.62003 14.3253 7.34017 14.205 6.90519 13.8546C6.45612 13.4945 5.92676 12.9629 5.15769 12.1862L3.26268 10.2739C2.94594 9.95496 2.43069 9.95282 2.11178 10.2685C1.79287 10.5852 1.79069 11.1005 2.10635 11.4194L4.03609 13.3664C4.76285 14.0997 5.35729 14.6985 5.88555 15.1237C6.43659 15.5652 6.99521 15.8852 7.66558 15.9709C7.95954 16.0088 8.25676 16.0088 8.55072 15.9709C9.22108 15.8852 9.77971 15.5652 10.3308 15.1237C10.859 14.6985 11.4534 14.0997 12.1802 13.3664L14.1099 11.4194Z" fill="#1FB1ED"/>
<path d="M7.59912 1.64255C7.75749 1.62195 7.91584 1.62195 8.07421 1.64255C8.32479 1.67401 8.60466 1.7944 9.03964 2.14476C9.48871 2.50489 10.0181 3.03644 10.7871 3.8131L12.6822 5.72548C12.9989 6.04438 13.5141 6.04653 13.8331 5.73087C14.152 5.41413 14.1541 4.89888 13.8384 4.57997L11.9087 2.6329C11.182 1.89963 10.5875 1.30087 10.0593 0.875652C9.50824 0.434168 8.94958 0.114168 8.27922 0.0284741C7.98526 -0.00949136 7.68807 -0.00949136 7.39411 0.0284741C6.72375 0.114168 6.16509 0.434168 5.61405 0.875652C5.08578 1.30087 4.49137 1.89963 3.7646 2.6329L1.83488 4.57997C1.51923 4.89888 1.52137 5.41413 1.84028 5.73087C2.15919 6.04653 2.67444 6.04438 2.99118 5.72548L4.88621 3.8131C5.65528 3.03644 6.18462 2.50489 6.63369 2.14476C7.06867 1.7944 7.34854 1.67401 7.59912 1.64255Z" fill="#1FB1ED"/>
</g>
<defs>
<clipPath id="clip0_1458_35352">
<rect width="12.7453" height="16" fill="white" transform="translate(1.59961)"/>
</clipPath>
</defs>
</svg>
