<svg version="1.2" xmlns="http://www.w3.org/2000/svg" viewBox="0 0 16 16" width="16" height="16"><defs><clipPath clipPathUnits="userSpaceOnUse" id="cp1"><path d="m1.6 0h12.74v16h-12.74z"/></clipPath></defs><style>.a{opacity:.2;fill:#1fb1ed}.b{fill:#1fb1ed}</style><g clip-path="url(#cp1)"><path class="a" d="m14.1 11.4c0.3-0.3 0.3-0.8 0-1.1-0.3-0.3-0.8-0.3-1.1 0l-1.9 1.9c-0.8 0.8-1.3 1.3-1.8 1.7-0.4 0.3-0.7 0.4-1 0.5q-0.2 0-0.4 0c-0.3-0.1-0.6-0.2-1-0.5-0.4-0.4-1-0.9-1.7-1.7l-1.9-1.9c-0.4-0.3-0.9-0.3-1.2 0-0.3 0.3-0.3 0.8 0 1.1l1.9 2c0.8 0.7 1.4 1.3 1.9 1.7q0.7 0.7 1.8 0.9 0.4 0 0.9 0c0.6-0.1 1.2-0.4 1.7-0.9 0.6-0.4 1.2-1 1.9-1.7z"/><path class="b" d="m7.6 1.6q0.2 0 0.5 0c0.2 0.1 0.5 0.2 0.9 0.5 0.5 0.4 1 0.9 1.8 1.7l1.9 1.9c0.3 0.3 0.8 0.3 1.1 0 0.4-0.3 0.4-0.8 0-1.1l-1.9-2c-0.7-0.7-1.3-1.3-1.8-1.7q-0.9-0.8-1.8-0.9-0.5 0-0.9 0c-0.7 0.1-1.2 0.4-1.8 0.9-0.5 0.4-1.1 1-1.8 1.7l-2 2c-0.3 0.3-0.3 0.8 0 1.1 0.4 0.3 0.9 0.3 1.2 0l1.9-1.9c0.8-0.8 1.3-1.3 1.7-1.7 0.5-0.3 0.7-0.4 1-0.5z"/></g></svg>