<svg width="178" height="142" viewBox="0 0 178 142" fill="none" xmlns="http://www.w3.org/2000/svg">
<mask id="mask0_1458_86922" style="mask-type:alpha" maskUnits="userSpaceOnUse" x="0" y="0" width="178" height="142">
<rect y="0.617188" width="178" height="140.897" fill="#D9D9D9"/>
</mask>
<g mask="url(#mask0_1458_86922)">
<path d="M85.1637 75.2689C90.092 75.2689 94.0872 71.3485 94.0872 66.5124C94.0872 61.6763 90.092 57.7559 85.1637 57.7559C80.2354 57.7559 76.2402 61.6763 76.2402 66.5124C76.2402 71.3485 80.2354 75.2689 85.1637 75.2689Z" fill="#1FB1ED"/>
<path d="M89.7433 62.8637C89.6091 62.7381 89.4307 62.668 89.2452 62.668C89.0596 62.668 88.8812 62.7381 88.747 62.8637C86.8536 64.3456 85.1529 66.0502 83.6833 67.9392C83.3224 67.2542 82.9617 66.5691 82.6009 65.8841C82.1845 65.0934 80.9682 65.7919 81.3843 66.5819C81.912 67.5839 82.4397 68.5859 82.9674 69.5879C83.0311 69.6901 83.1205 69.7747 83.227 69.8333C83.3335 69.892 83.4536 69.9228 83.5757 69.9228C83.6979 69.9228 83.818 69.892 83.9245 69.8333C84.031 69.7747 84.1204 69.6901 84.184 69.5879C85.7501 67.4234 87.622 65.4886 89.7433 63.8414C89.8744 63.7112 89.9479 63.5356 89.9479 63.3526C89.9479 63.1696 89.8744 62.9939 89.7433 62.8637Z" fill="white"/>
<path d="M45.2357 91.344L31.7793 70.6069L47.3615 62.418L51.4512 78.2395L80.2672 93.5195C81.4049 93.1177 82.6371 93.0495 83.8136 93.323C84.9901 93.5966 86.0601 94.2002 86.8931 95.0601C87.7261 95.9201 88.2861 96.9993 88.5048 98.1662C88.7236 99.3331 88.5916 100.537 88.125 101.632C87.6584 102.726 86.8773 103.664 85.877 104.331C84.8767 104.997 83.7004 105.364 82.4915 105.385C81.2826 105.407 80.0934 105.083 79.0688 104.453C78.0442 103.823 77.2286 102.914 76.7213 101.837L45.2357 91.344Z" fill="#A0616A"/>
<path d="M21.9474 45.733C17.7193 51.8247 32.7447 73.9671 32.7447 73.9671C33.4767 72.4189 40.4739 89.8054 41.6459 88.7783C44.9767 85.8593 50.1908 77.7284 53.0891 77.3659C54.7466 77.1586 49.245 65.6237 49.245 65.6237C49.245 65.6237 46.7306 58.8123 43.3188 50.1114C42.4007 47.634 40.8588 45.4248 38.8365 43.6894C36.8143 41.9541 34.3775 40.749 31.753 40.1864C31.753 40.1864 26.1754 39.6414 21.9474 45.733Z" fill="#3F3D56"/>
<path d="M54.6102 111.959L13.0421 112.979C5.14746 117.186 5.02759 126.294 7.61431 137.106C7.61431 137.106 6.74107 143.533 8.48755 145.247C10.234 146.961 11.1073 146.961 10.234 149.96C9.36079 152.959 13.9745 157.857 13.4141 158.407C12.8537 158.957 11.5439 161.956 11.5439 161.956L15.9101 186.378C15.9101 186.378 18.9664 228.795 19.8397 229.651C20.7129 230.508 21.5861 229.651 20.7129 231.794C19.8397 233.936 18.9664 233.079 19.8397 233.936C20.6132 234.754 21.3419 235.612 22.0228 236.507H32.579C32.579 236.507 33.3749 232.222 33.3749 231.794C33.3749 231.365 34.2481 228.795 34.2481 228.366C34.2481 227.938 33.4763 227.18 33.4763 227.18C33.2096 226.309 33.0294 225.415 32.9382 224.51C32.9382 223.653 30.3185 190.663 30.3185 190.663L35.5579 147.818L48.2199 189.806C48.2199 189.806 48.2199 226.652 49.0931 227.509C49.9664 228.366 49.9664 227.938 49.5297 229.651C49.0931 231.365 47.3466 230.937 48.6565 232.222C49.9663 233.508 50.403 231.365 49.9664 233.508L49.5298 235.65L62.6283 235.834C62.6283 235.834 64.3748 232.222 63.5016 230.937C62.6283 229.652 62.6807 230.002 63.7461 227.899C64.8114 225.795 65.2481 225.367 64.8114 224.939C64.3748 224.51 64.3748 222.231 64.3748 222.231L62.1917 181.237C62.1917 181.237 61.7551 137.963 61.7551 136.678C61.7222 136.017 61.8464 135.357 62.1178 134.75V133.006L60.4452 126.824L54.6102 111.959Z" fill="#2F2E41"/>
<path d="M29.64 27.1425C36.773 27.1425 42.5555 21.4682 42.5555 14.4687C42.5555 7.46916 36.773 1.79492 29.64 1.79492C22.507 1.79492 16.7246 7.46916 16.7246 14.4687C16.7246 21.4682 22.507 27.1425 29.64 27.1425Z" fill="#A0616A"/>
<path d="M36.0971 35.5192C38.8795 37.1424 40.544 40.1249 41.4995 43.1598C43.2684 48.7786 44.3332 54.5879 44.6703 60.4594L45.6795 78.0376L58.1783 115.467C47.346 124.461 6.62901 117.511 6.62901 117.511C6.62901 117.511 5.37914 117.102 6.62901 115.875C7.87889 114.649 9.09565 115.736 7.84579 114.509C6.59594 113.283 7.45754 114.649 7.87417 113.422C8.2908 112.196 7.87417 113.014 7.45755 112.605C7.04092 112.196 10.6828 108.516 10.6828 108.516L7.34984 87.0319L3.18359 43.6958C8.18313 37.5633 18.2378 33.9483 18.2378 33.9483L20.8358 29.3594L33.8258 30.3791L36.0971 35.5192Z" fill="#3F3D56"/>
<path d="M40.2856 7.735C41.2894 8.46968 42.0331 9.49481 42.4119 10.666C42.5575 8.75199 42.5667 6.83031 42.4396 4.91499C42.2874 3.56909 41.3218 3.26635 40.2036 2.91555C39.1939 2.59862 38.0519 2.24062 37.7447 0.934055C33.6848 -2.94157 26.6174 -2.74613 21.7807 -1.39426C19.1192 -0.650355 17.5878 0.305425 17.4508 0.865335L17.4224 0.980609L17.3143 1.03364C15.2628 2.0402 14.8635 5.21872 14.8899 7.70786C14.9398 12.3976 16.59 17.7239 17.5196 18.1566C17.5688 18.1795 17.5812 18.1706 17.6025 18.1531C19.0023 17.0555 20.71 18.2366 21.4605 18.8786C21.9031 15.9639 23.3284 13.2788 25.5086 11.2521C27.6888 9.22548 30.4982 7.97421 33.4881 7.69818C34.4646 7.60557 35.4332 7.44618 36.387 7.22118C36.8709 7.09835 37.3682 7.0343 37.868 7.03047C38.7282 7.01766 39.5719 7.26351 40.2856 7.735Z" fill="#2F2E41"/>
<path d="M120.464 122.057L145.308 97.2996L151.854 77.4992L141.321 73.3184C136.102 78.4833 130.731 94.2948 130.731 94.2948L113.774 116.628C113.638 116.677 113.503 116.729 113.37 116.791C112.59 117.153 111.917 117.706 111.418 118.397C110.919 119.089 110.61 119.894 110.521 120.737C110.432 121.58 110.566 122.431 110.91 123.208C111.254 123.985 111.797 124.662 112.485 125.173C113.174 125.684 113.985 126.012 114.841 126.126C115.696 126.239 116.567 126.134 117.369 125.821C118.171 125.508 118.878 124.997 119.42 124.337C119.962 123.678 120.321 122.892 120.464 122.057Z" fill="#FFB8B8"/>
<path d="M138.445 75.5848L151.766 79.3662L151.816 79.3568C156.712 78.4238 160.586 70.4388 162.973 63.9045C163.758 61.7493 163.68 59.3818 162.754 57.2809C161.829 55.1799 160.125 53.5021 157.987 52.5867C156.406 51.9218 154.666 51.7044 152.965 51.9589C151.264 52.2134 149.669 52.9298 148.362 54.027L141.72 59.6391L138.445 75.5848Z" fill="#1FB1ED"/>
<path d="M169.76 126.668C169.76 126.668 170.597 136.518 168.506 145.958C166.414 155.398 166.414 181.985 166.414 181.985L161.813 233.792L148.011 232.56L144.246 145.958L130.862 175.099L132.117 179.204L130.445 180.23C130.445 180.23 131.699 188.233 130.862 188.233C130.025 188.233 127.934 189.465 127.934 189.465L129.607 231.739L115.386 231.329L110.367 171.816L115.805 137.75L116.223 131.183L118.105 131.259L119.063 128.515L120.824 123.795L169.76 126.668Z" fill="#2F2E41"/>
<path d="M170.486 128.737L170.56 128.635C174.542 123.165 168.554 110.022 167.651 108.117L171.454 106.905L170.598 99.7607L170.192 96.5754L173.099 93.7226L173.107 93.6515L174.781 79.2862L177.213 69.745C178.13 66.138 178.052 62.3567 176.987 58.7892C175.922 55.2217 173.909 51.9965 171.154 49.4447L165.531 44.2423L158.698 34.3203H147.678L143.9 41.3238C140.236 42.1546 136.986 44.2201 134.715 47.1607C132.444 50.1012 131.297 53.7302 131.472 57.4157L132.329 75.7837L128.976 98.6534L128.974 102.792L125.201 106.907L126.025 110.949L123.154 112.156L121.886 117.962C121.362 118.641 117.898 123.172 117.898 124.411C117.898 124.597 118.038 124.777 118.339 124.976C120.699 126.544 133.743 129.741 139.517 127.474C145.666 125.061 170.112 128.681 170.359 128.718L170.486 128.737Z" fill="#1FB1ED"/>
<path d="M151.764 31.1191C159.824 31.1191 166.359 24.7072 166.359 16.7978C166.359 8.88841 159.824 2.47656 151.764 2.47656C143.704 2.47656 137.17 8.88841 137.17 16.7978C137.17 24.7072 143.704 31.1191 151.764 31.1191Z" fill="#FFB8B8"/>
<path d="M150.366 31.3493C152.626 31.3267 154.88 31.1146 157.104 30.7154C159.305 30.2178 164.161 26.5327 165.485 24.3557C166.468 22.7382 167.059 20.2363 167.381 18.4224C167.815 16.0219 167.732 13.5584 167.135 11.1917C166.538 8.82492 165.441 6.60759 163.915 4.68328C163.327 3.87712 162.527 3.24194 161.602 2.84493C161.52 2.81588 161.436 2.79042 161.351 2.76898C160.009 2.45859 158.792 1.76167 157.856 0.767696C157.675 0.56646 157.478 0.378321 157.269 0.204746C156.22 -0.619768 154.986 -1.18887 153.67 -1.45603C151.543 -1.95725 148.501 -1.32916 144.627 0.412375C142.682 1.28735 140.522 1.04326 138.857 0.732823C138.764 0.717578 138.668 0.72658 138.579 0.758927C138.491 0.791274 138.412 0.845842 138.352 0.917203C137.664 1.58388 136.746 1.97058 135.78 1.9996C135.189 2.04008 134.589 2.85975 133.866 3.92712C133.702 4.16941 133.511 4.45219 133.372 4.62475L133.344 4.30068L133.019 4.67122C132.508 5.2536 132.155 5.95343 131.994 6.70555C131.833 7.45767 131.868 8.23761 132.097 8.97274C132.325 9.70788 132.74 10.3743 133.301 10.9099C133.863 11.4456 134.554 11.833 135.309 12.0362C135.908 12.1765 136.521 12.2564 137.137 12.2747C137.51 12.2981 137.896 12.3224 138.267 12.3759C139.458 12.584 140.574 13.0917 141.506 13.8494C142.438 14.607 143.153 15.5888 143.583 16.6989C143.684 16.9554 143.844 17.1857 144.051 17.3718C144.257 17.558 144.505 17.6951 144.774 17.7726C145.043 17.85 145.326 17.8658 145.603 17.8186C145.879 17.7715 146.14 17.6626 146.367 17.5005C146.744 17.1969 147.19 16.9872 147.667 16.8893C148.145 16.7915 148.639 16.8084 149.108 16.9386C149.516 17.1479 149.839 17.4885 150.021 17.9034C150.242 18.3651 150.598 18.7518 151.043 19.0142C152.563 19.7349 152.755 23.0931 152.29 25.9085C151.842 28.6222 150.867 30.6018 149.919 30.7224C149.19 30.8152 149.107 30.8683 149.058 30.9966L149.014 31.1115L149.098 31.2157C149.506 31.3491 149.939 31.3947 150.366 31.3493Z" fill="#2F2E41"/>
<path d="M138.255 77.1169L131.24 68.3457C124.095 70.2766 111.416 81.3665 111.416 81.3665L85.3771 92.4547C84.508 92.3114 83.6158 92.3953 82.7903 92.6979C81.9647 93.0006 81.235 93.5112 80.6745 94.1786C80.1141 94.8459 79.7426 95.6464 79.5977 96.4994C79.4527 97.3524 79.5392 98.2278 79.8486 99.0375C80.158 99.8472 80.6793 100.563 81.36 101.112C82.0408 101.661 82.8569 102.025 83.7264 102.166C84.5958 102.307 85.4878 102.221 86.3126 101.917C87.1374 101.612 87.8658 101.1 88.4247 100.431L122.534 91.0929L138.255 77.1169Z" fill="#FFB8B8"/>
<path d="M136.576 79.121L147.645 67.0128L148.26 58.4332C148.374 56.7485 148.006 55.0659 147.197 53.5757C146.388 52.0854 145.17 50.8469 143.682 50.0001C141.656 48.8655 139.267 48.5281 136.997 49.0561C134.727 49.584 132.747 50.938 131.455 52.8442C127.544 58.6284 123.337 66.4489 125.502 70.8581L125.524 70.9028L136.576 79.121Z" fill="#1FB1ED"/>
<path d="M34.5556 124.632L5.78703 110.174C3.74073 109.145 3.0629 106.417 4.27606 104.093L23.0338 68.1527C24.2469 65.8283 26.8987 64.7738 28.945 65.8022L57.7136 80.2603C59.7599 81.2887 60.4377 84.0165 59.2246 86.3409L40.4669 122.281C39.2537 124.606 36.6019 125.66 34.5556 124.632Z" fill="#E6E6E6"/>
<path d="M29.6402 117.986L10.0945 108.163C8.17798 107.2 7.54303 104.645 8.67923 102.468L24.2628 72.6093C25.399 70.4323 27.8826 69.445 29.7991 70.4081L53.4063 82.2723C55.3228 83.2355 55.9576 85.79 54.8214 87.967L46.3556 104.188C41.2947 113.885 38.1769 122.276 29.6402 117.986Z" fill="white"/>
<path d="M39.3038 101.679L21.9916 92.9786C21.7799 92.8306 21.6295 92.6128 21.5679 92.365C21.5064 92.1172 21.5377 91.856 21.6561 91.6289C21.7746 91.4019 21.9724 91.2243 22.2133 91.1285C22.4542 91.0328 22.7221 91.0252 22.9682 91.1073L40.2805 99.8078C40.4921 99.9558 40.6425 100.174 40.7041 100.421C40.7657 100.669 40.7343 100.93 40.6159 101.157C40.4974 101.384 40.2996 101.562 40.0587 101.658C39.8178 101.754 39.5499 101.761 39.3038 101.679Z" fill="#1FB1ED"/>
<path d="M24.0127 98.6615L20.0619 96.676C19.8502 96.5279 19.6998 96.3101 19.6382 96.0623C19.5767 95.8145 19.608 95.5533 19.7265 95.3263C19.845 95.0992 20.0427 94.9216 20.2836 94.8258C20.5245 94.73 20.7925 94.7225 21.0386 94.8045L24.9894 96.7901C25.2011 96.9381 25.3514 97.1559 25.413 97.4037C25.4746 97.6515 25.4433 97.9127 25.3248 98.1398C25.2063 98.3668 25.0086 98.5444 24.7677 98.6402C24.5268 98.736 24.2588 98.7435 24.0127 98.6615Z" fill="#1FB1ED"/>
<path d="M29.0804 105.877L18.1322 100.375C17.9205 100.227 17.7701 100.009 17.7086 99.7616C17.647 99.5138 17.6783 99.2525 17.7968 99.0255C17.9153 98.7985 18.113 98.6208 18.3539 98.525C18.5948 98.4293 18.8628 98.4217 19.1089 98.5037L30.0571 104.006C30.2688 104.154 30.4192 104.372 30.4807 104.62C30.5423 104.867 30.511 105.129 30.3925 105.356C30.274 105.583 30.0763 105.76 29.8354 105.856C29.5945 105.952 29.3265 105.959 29.0804 105.877Z" fill="#1FB1ED"/>
<path d="M46.1534 88.5541L28.8412 79.8536C28.6295 79.7056 28.4791 79.4878 28.4176 79.24C28.356 78.9922 28.3873 78.731 28.5058 78.5039C28.6242 78.2769 28.822 78.0993 29.0629 78.0035C29.3038 77.9078 29.5718 77.9002 29.8179 77.9823L47.1301 86.6828C47.3417 86.8308 47.4921 87.0486 47.5537 87.2964C47.6153 87.5441 47.584 87.8054 47.4655 88.0324C47.347 88.2594 47.1493 88.4371 46.9084 88.5328C46.6675 88.6286 46.3995 88.6362 46.1534 88.5541Z" fill="#1FB1ED"/>
<path d="M30.8642 85.5365L26.9134 83.551C26.7017 83.4029 26.5514 83.1851 26.4898 82.9373C26.4282 82.6895 26.4596 82.4283 26.578 82.2012C26.6965 81.9742 26.8943 81.7966 27.1352 81.7008C27.3761 81.605 27.644 81.5975 27.8901 81.6795L31.841 83.6651C32.0526 83.8131 32.203 84.0309 32.2646 84.2787C32.3262 84.5265 32.2948 84.7877 32.1763 85.0148C32.0579 85.2418 31.8601 85.4194 31.6192 85.5152C31.3783 85.611 31.1104 85.6185 30.8642 85.5365Z" fill="#1FB1ED"/>
<path d="M35.9319 92.7504L24.9837 87.2482C24.7721 87.1002 24.6217 86.8824 24.5601 86.6346C24.4985 86.3868 24.5299 86.1255 24.6483 85.8985C24.7668 85.6715 24.9646 85.4939 25.2055 85.3981C25.4464 85.3023 25.7143 85.2947 25.9605 85.3768L36.9087 90.879C37.1203 91.027 37.2707 91.2448 37.3323 91.4926C37.3939 91.7404 37.3625 92.0017 37.2441 92.2287C37.1256 92.4557 36.9278 92.6333 36.6869 92.7291C36.446 92.8249 36.178 92.8325 35.9319 92.7504Z" fill="#1FB1ED"/>
<path d="M10.716 93.3439L4.2168 69.6012L21.5844 66.375L20.6505 82.6718L43.4701 105.729C44.6781 105.68 45.8745 105.978 46.9132 106.585C47.952 107.192 48.7882 108.083 49.3201 109.149C49.8519 110.214 50.0563 111.408 49.9083 112.586C49.7603 113.764 49.2664 114.873 48.4868 115.78C47.7071 116.687 46.6754 117.352 45.5175 117.693C44.3595 118.035 43.1254 118.038 41.9655 117.703C40.8056 117.368 39.77 116.709 38.9852 115.807C38.2003 114.904 37.7 113.797 37.5452 112.62L10.716 93.3439Z" fill="#A0616A"/>
<path d="M2.43879 42.9791C-3.4564 47.546 4.1101 73.0912 4.1101 73.0912C5.28158 71.8296 6.64292 90.475 8.07483 89.8402C12.1445 88.0358 19.6036 81.8136 22.4792 82.3208C24.1238 82.6108 22.4008 69.9877 22.4008 69.9877C22.4008 69.9877 22.0839 62.7499 21.4883 53.4455C21.3696 50.8119 20.5739 48.2506 19.1751 46C17.7763 43.7494 15.82 41.8826 13.4883 40.5735C13.4883 40.5735 8.33399 38.4122 2.43879 42.9791Z" fill="#3F3D56"/>
<path d="M100.53 146.041L84.8308 138.766C84.4951 138.612 84.1994 138.384 83.966 138.101C83.7325 137.819 83.5674 137.487 83.4829 137.133C83.3978 136.786 83.3939 136.425 83.4713 136.077C83.5488 135.729 83.7056 135.402 83.9301 135.121C88.4776 129.418 91.6001 122.749 93.0474 115.648C93.1568 115.104 93.455 114.615 93.8911 114.262C94.3272 113.91 94.8743 113.717 95.4391 113.717C103.446 113.744 109.43 116.612 113.224 122.243C113.424 122.535 113.557 122.868 113.613 123.216C113.668 123.564 113.646 123.92 113.547 124.259C111.35 131.69 108.007 138.747 103.634 145.186C103.309 145.672 102.816 146.027 102.245 146.184C101.674 146.342 101.065 146.291 100.53 146.041Z" fill="#E6E6E6"/>
<path d="M105.149 135.838L93.1451 130.276C92.8465 130.138 92.6161 129.889 92.5047 129.583C92.3932 129.278 92.4099 128.942 92.5509 128.649C92.6919 128.356 92.9457 128.13 93.2566 128.021C93.5675 127.912 93.9099 127.928 94.2085 128.066L106.212 133.628C106.36 133.697 106.493 133.793 106.603 133.912C106.712 134.031 106.797 134.17 106.853 134.321C106.908 134.472 106.932 134.632 106.924 134.792C106.916 134.953 106.876 135.11 106.806 135.255C106.737 135.4 106.638 135.53 106.517 135.638C106.396 135.746 106.255 135.829 106.101 135.884C105.947 135.938 105.783 135.962 105.62 135.954C105.457 135.946 105.297 135.907 105.149 135.838Z" fill="white"/>
<path d="M107.012 131.963L95.0084 126.401C94.7098 126.263 94.4794 126.014 94.368 125.708C94.2565 125.403 94.2731 125.067 94.4142 124.774C94.5552 124.481 94.809 124.255 95.1199 124.146C95.4308 124.037 95.7732 124.053 96.0718 124.191L108.075 129.753C108.374 129.892 108.604 130.141 108.716 130.446C108.827 130.751 108.811 131.087 108.67 131.38C108.529 131.673 108.275 131.899 107.964 132.009C107.653 132.118 107.311 132.102 107.012 131.963Z" fill="white"/>
</g>
</svg>
